<svg xmlns="http://www.w3.org/2000/svg" xmlns:svgjs="http://svgjs.com/svgjs" xmlns:xlink="http://www.w3.org/1999/xlink" width="288" height="288"><svg xmlns="http://www.w3.org/2000/svg" width="288" height="288" enable-background="new 206 -206 512 512" viewBox="206 -206 512 512"><path fill="#07ace7" d="M541.3,63.7c72.1,0,130.8-58.7,130.8-130.8S613.4-198,541.3-198c-72.1,0-130.8,58.7-130.8,130.8
		S469.2,63.7,541.3,63.7z M541.3-178c61.2,0,110.9,49.6,110.9,110.8c0,61.2-49.6,110.9-110.8,110.9c-61.2,0-110.9-49.6-110.9-110.8
		c0,0,0,0,0-0.1C430.6-128.3,480.1-177.9,541.3-178L541.3-178z" class="color000 svgShape"/><path fill="#07ace7" d="M541.3-24.3c-9.1 0-16.4-7.4-16.4-16.4 0-5.5-4.5-10-10-10-5.6 0-10.1 4.4-10.2 10C504.7-24.4 516-10.6 530-6v9c0 5.5 4.5 10 10 10s10-4.5 10-10v-8.4c19.5-4.9 31.3-24.7 26.4-44.2-4.1-16.1-18.6-27.5-35.2-27.5-9.1 0-16.4-7.4-16.3-16.5s7.4-16.4 16.5-16.3c9 0 16.3 7.4 16.3 16.4 0 5.5 4.5 10 10 10 0 0 0 0 0 0 5.4 0 9.8-4.4 9.8-9.9 0 0 0-.1 0-.1 0-16.7-11.3-31.2-27.5-35.3v-3.9c0-5.5-4.5-10-10-10s-10 4.5-10 10v4.5c-14 4.7-25.3 18.5-25.3 34.7 0 20.1 16.3 36.4 36.5 36.4 9.1 0 16.4 7.4 16.3 16.5C557.5-31.7 550.3-24.4 541.3-24.3L541.3-24.3zM692.1 103.1c-12.9-15.9-36.2-18.3-52.2-5.4-20 16.3-49.1 39.8-68 55.1-13.3 10.7-29.7 16.8-46.8 17.4l-51.2 1.7c-2.1.1-4-1-5.1-2.7l-5.7-9.8c-1-1.6-1.1-3.5-.3-5.2.8-1.7 2.3-2.9 4.1-3.2l52.9-10c18.6-3.5 31.6-21.1 29.5-40.2-2-18.4-17.6-32.2-36-32.2-.5 0-1.1 0-1.8 0l-70.7-2.9c-28.2-1-52.4 4.4-80.7 18.1l-37 17.9C317.9 90.9 307 84 295 84h-40.9c-17.1-.1-31 13.7-31.1 30.8v152.3c.1 17.1 14 30.9 31.1 30.9H295c17.1 0 30.9-13.8 31-30.9v-10.3l39.3-7.2c12.7-1.9 20.7-2.6 34.2-2l107.5 5c38.7 1.7 76.6-11.1 106.3-35.9l74.5-61.8c0 0 .1-.1.1-.1 14.9-12.7 17.1-35 5-50.4C692.7 103.9 692.4 103.5 692.1 103.1zM306 267.1c0 6-4.9 10.9-10.9 10.9l0 0h-41.2c-6 0-10.9-4.9-10.9-10.9l0 0V114.9c0-6 4.9-10.9 10.9-10.9l0 0h41.2c6 0 10.9 4.9 10.9 10.9l0 0V267.1zM675 139.5l-74.4 61.7c-25.9 21.6-59 32.7-92.7 31.3l-107.5-5c-15.1-.7-24.3.2-38.2 2.2-.1 0-.2 0-.3.1l-35.9 6.6v-114l42.8-20.7c25.2-12.2 46.5-17 71.2-16.1l71.2 2.9c.4 0 .9 0 1.3 0 .1 0 .5 0 .8 0 8.2.1 15.2 6.2 16.2 14.4 1 8.6-4.8 16.6-13.3 18.3l-52.9 10c-13.9 2.6-23 16.1-20.4 30 .6 2.9 1.6 5.7 3.1 8.2l5.7 9.7c4.8 8.1 13.6 12.9 23 12.6l51.2-1.7c21.4-.8 42-8.5 58.7-21.8 18.9-15.3 48.1-38.8 68.1-55.1 7.2-5.6 17.5-4.7 23.6 2.1.2.4.5.8.8 1.2C682.8 123.3 681.9 133.7 675 139.5 675 139.5 675 139.5 675 139.5z" class="color000 svgShape"/></svg></svg>