<svg xmlns="http://www.w3.org/2000/svg" xmlns:svgjs="http://svgjs.com/svgjs" xmlns:xlink="http://www.w3.org/1999/xlink" width="288" height="288"><svg xmlns="http://www.w3.org/2000/svg" width="288" height="288" viewBox="0 0 48 48"><path fill="#07ace7" fill-rule="evenodd" d="M24 0A24 24 0 0 0 0 24a24 24 0 0 0 24 24 24 24 0 0 0 24-24A24 24 0 0 0 24 0zm-7.5 8h10.924a.5.5 0 0 1 .045 0 .5.5 0 0 1 .031 0 .5.5 0 0 1 .361.148l3.993 4a.5.5 0 0 1 .136.426.5.5 0 0 1 .006.076v6.391h3.463c.844 0 1.541.692 1.541 1.535V34h1.5a.5.5 0 0 1 .5.5c0 1.925-1.54 3.5-3.443 3.5H12.443C10.54 38 9 36.425 9 34.5a.5.5 0 0 1 .5-.5H11V20.576c0-.843.697-1.535 1.541-1.535H16V8.5a.5.5 0 0 1 .5-.5zm.5 1v19H30.996V13h-3.49a.5.5 0 0 1-.5-.5V9H17zm11.006.709V12h2.289l-2.29-2.291zM18.457 10a.5.5 0 0 1 .05 0h1a.5.5 0 1 1 0 1h-1a.5.5 0 0 1-.05-1zm3.002 0a.5.5 0 0 1 .05 0h3.983a.5.5 0 1 1 0 1H21.51a.5.5 0 0 1-.051-1zm-3.002 2a.5.5 0 0 1 .05 0h1a.5.5 0 1 1 0 1h-1a.5.5 0 0 1-.05-1zm3.002 0a.5.5 0 0 1 .05 0h3.983a.5.5 0 1 1 0 1H21.51a.5.5 0 0 1-.051-1zm1.035 3.002a.5.5 0 0 1 .5.5v3a.5.5 0 0 1-.5.5H19.5a.5.5 0 0 1-.5-.5c0-1.927 1.57-3.5 3.494-3.5zm1.797.6a4.697 4.697 0 0 1 4.336 2.902 4.708 4.708 0 0 1-1.018 5.121 4.688 4.688 0 0 1-5.113 1.018A4.703 4.703 0 0 1 19.6 20.3a.5.5 0 0 1 .5-.5h3.691v-3.7a.5.5 0 0 1 .5-.5zm-2.297.607c-.925.214-1.576.866-1.789 1.793h1.79v-1.793zm2.797.545V20.3a.5.5 0 0 1-.5.5H20.75c.186 1.275.916 2.414 2.129 2.918a3.684 3.684 0 0 0 4.023-.801 3.704 3.704 0 0 0 .801-4.033c-.502-1.215-1.64-1.944-2.912-2.131zm-12.25 3.287a.526.526 0 0 0-.541.535V34h24V20.576a.526.526 0 0 0-.541-.535h-3.463V21H34.5a.5.5 0 0 1 .5.5v11a.5.5 0 0 1-.5.5h-21a.5.5 0 0 1-.5-.5v-11a.5.5 0 0 1 .5-.5H16v-.959h-3.459zM14 22v10H34V22h-2.004v6.5a.5.5 0 0 1-.5.5H16.5a.5.5 0 0 1-.5-.5V22h-2zm6.45 4.002a.5.5 0 0 1 .05 0h7a.5.5 0 1 1 0 1h-7a.5.5 0 1 1-.05-1zM10.2 35c.25 1.116 1.076 2 2.242 2h23.114c1.166 0 1.993-.884 2.242-2H27.164v.28c0 .693-.565 1.279-1.262 1.279h-3.804c-.697 0-1.262-.586-1.262-1.28V35H10.2zm11.635 0v.28c0 .17.115.279.262.279h3.804c.147 0 .262-.11.262-.28V35h-4.328z" class="color000 svgShape"/></svg></svg>