<svg xmlns="http://www.w3.org/2000/svg" xmlns:svgjs="http://svgjs.com/svgjs" xmlns:xlink="http://www.w3.org/1999/xlink" width="288" height="288"><svg xmlns="http://www.w3.org/2000/svg" width="288" height="288" data-name="Layer 1" viewBox="0 0 32 32"><path fill="#07ace7" d="M18 18H6v1h12ZM4.5 24a.5.5 0 1 0 .5.5.5.5 0 0 0-.5-.5ZM22 15H6v1h16Zm0-3H6v1h16Zm3 7V7.29L17.71 0H1v32h23.5a6.49 6.49 0 0 0 .5-13ZM18 1.71 23.29 7H18ZM17.5 8H21v1H5V4h12v3.5a.5.5 0 0 0 .5.5ZM2 31V1h15v2H4v7h18V8h2v11a6.49 6.49 0 0 0-2.95 12Zm22.5 0a5.5 5.5 0 1 1 5.5-5.5 5.51 5.51 0 0 1-5.5 5.5Zm-20-10a.5.5 0 1 0 .5.5.5.5 0 0 0-.5-.5Zm0-3a.5.5 0 1 0 .5.5.5.5 0 0 0-.5-.5ZM6 25h10v-1H6Zm0-3h11v-1H6Zm7.21 5.1c-1.65 1.19-2.27 1.07-2.46 1a1 1 0 0 1-.3-.35 1.49 1.49 0 0 0-.79-.75c-.7-.24-1.53.13-2.51 1.12a.49.49 0 0 0 .7.7c1-1 1.38-.91 1.49-.88s.15.11.27.3a1.91 1.91 0 0 0 .64.67 1.67 1.67 0 0 0 .78.19 5.15 5.15 0 0 0 2.76-1.23.49.49 0 1 0-.58-.8ZM4.5 12a.5.5 0 1 0 .5.5.5.5 0 0 0-.5-.5Zm0 3a.5.5 0 1 0 .5.5.5.5 0 0 0-.5-.5ZM24 23h1a1 1 0 0 1 1 1 .49.49 0 0 0 .5.49.5.5 0 0 0 .5-.49 2 2 0 0 0-2-2h-1a2 2 0 0 0-2 2v3a2 2 0 0 0 2 2h1a2 2 0 0 0 2-2 .5.5 0 1 0-1 0 1 1 0 0 1-1 1h-1a1 1 0 0 1-1-1v-3a1 1 0 0 1 1-1Z" class="color000 svgShape"/></svg></svg>