<svg xmlns="http://www.w3.org/2000/svg" xmlns:svgjs="http://svgjs.com/svgjs" xmlns:xlink="http://www.w3.org/1999/xlink" width="288" height="288"><svg xmlns="http://www.w3.org/2000/svg" width="288" height="288" enable-background="new 0 0 64 64" viewBox="0 0 64 64"><path fill="#07ace7" d="M52.662,31.872c0-0.536-0.434-0.97-0.97-0.97h-5.804V13.155c0-0.868-0.089-1.715-0.251-2.536
	c0.006-0.043,0.025-0.081,0.025-0.126c0-0.204-0.077-0.382-0.185-0.539C44.043,4.245,38.882,0,32.733,0h-1.467
	c-6.164,0-11.336,4.267-12.755,9.998c-0.09,0.147-0.156,0.31-0.156,0.495c0,0.027,0.013,0.049,0.015,0.075
	c-0.168,0.837-0.258,1.702-0.258,2.587v17.748h-5.805c-0.536,0-0.97,0.434-0.97,0.97c0,11.49,8.921,21.247,19.693,21.806v8.382
	h-7.044c-0.536,0-0.97,0.434-0.97,0.97c0,0.535,0.434,0.97,0.97,0.97h16.027c0.536,0,0.97-0.434,0.97-0.97
	c0-0.536-0.434-0.97-0.97-0.97H32.97v-8.382C43.741,53.125,52.662,43.366,52.662,31.872z M20.052,28.315h5.059
	c0.536,0,0.97-0.434,0.97-0.97c0-0.535-0.434-0.97-0.97-0.97h-5.059v-3.678h5.059c0.536,0,0.97-0.434,0.97-0.97
	c0-0.536-0.434-0.97-0.97-0.97h-5.059V17.08h5.059c0.536,0,0.97-0.434,0.97-0.97c0-0.536-0.434-0.97-0.97-0.97h-5.059v-1.986
	c0-0.577,0.057-1.139,0.142-1.692h4.916c0.536,0,0.97-0.434,0.97-0.97c0-0.535-0.434-0.97-0.97-0.97h-4.443
	c1.514-4.405,5.688-7.584,10.6-7.584h1.467c4.912,0,9.087,3.179,10.601,7.584h-4.447c-0.536,0-0.97,0.434-0.97,0.97
	c0,0.536,0.434,0.97,0.97,0.97h4.921c0.084,0.553,0.142,1.116,0.142,1.692v1.986h-5.06c-0.536,0-0.97,0.434-0.97,0.97
	c0,0.535,0.434,0.97,0.97,0.97h5.06v3.678h-5.06c-0.536,0-0.97,0.434-0.97,0.97c0,0.535,0.434,0.97,0.97,0.97h5.06v3.678h-5.06
	c-0.536,0-0.97,0.434-0.97,0.97c0,0.536,0.434,0.97,0.97,0.97h5.06v5.29c0,6.184-5.031,11.215-11.216,11.215h-1.467
	c-6.184,0-11.215-5.031-11.215-11.215V28.315z M32.009,51.766c-0.003,0-0.005-0.002-0.008-0.002c-0.002,0-0.004,0.001-0.006,0.001
	c-9.667-0.007-18.18-8.739-18.693-18.924h4.811v0.763c0,7.254,5.901,13.155,13.154,13.155h1.467c7.254,0,13.155-5.901,13.155-13.155
	v-0.763h4.81C50.186,43.029,41.673,51.764,32.009,51.766z" class="color010101 svgShape"/></svg></svg>